ModelForces
version=1
nRows=4
nColumns=155
inDegrees=no

This file contains the forces exerted on a model during a simulation.

A force is a generalized force, meaning that it can be either a force (N) or a torque (Nm).

Units are S.I. units (second, meters, Newtons, ...)
Angles are in degrees.

endheader
time	glut_med1_r	glut_med2_r	glut_med3_r	glut_min1_r	glut_min2_r	glut_min3_r	semimem_r	semiten_r	bifemlh_r	bifemsh_r	sar_r	add_long_r	add_brev_r	add_mag1_r	add_mag2_r	add_mag3_r	tfl_r	pect_r	grac_r	glut_max1_r	glut_max2_r	glut_max3_r	iliacus_r	psoas_r	quad_fem_r	gem_r	peri_r	rect_fem_r	vas_med_r	vas_int_r	vas_lat_r	med_gas_r	lat_gas_r	soleus_r	tib_post_r	flex_dig_r	flex_hal_r	tib_ant_r	per_brev_r	per_long_r	per_tert_r	ext_dig_r	ext_hal_r	glut_med1_l	glut_med2_l	glut_med3_l	glut_min1_l	glut_min2_l	glut_min3_l	semimem_l	semiten_l	bifemlh_l	bifemsh_l	sar_l	add_long_l	add_brev_l	add_mag1_l	add_mag2_l	add_mag3_l	tfl_l	pect_l	grac_l	glut_max1_l	glut_max2_l	glut_max3_l	iliacus_l	psoas_l	quad_fem_l	gem_l	peri_l	rect_fem_l	vas_med_l	vas_int_l	vas_lat_l	med_gas_l	lat_gas_l	soleus_l	tib_post_l	flex_dig_l	flex_hal_l	tib_ant_l	per_brev_l	per_long_l	per_tert_l	ext_dig_l	ext_hal_l	ercspn_r	ercspn_l	intobl_r	intobl_l	extobl_r	extobl_l	femur_lat_meniscii_r.femur_lat_r.force.X	femur_lat_meniscii_r.femur_lat_r.force.Y	femur_lat_meniscii_r.femur_lat_r.force.Z	femur_lat_meniscii_r.femur_lat_r.torque.X	femur_lat_meniscii_r.femur_lat_r.torque.Y	femur_lat_meniscii_r.femur_lat_r.torque.Z	femur_lat_meniscii_r.meniscus_lat_r.force.X	femur_lat_meniscii_r.meniscus_lat_r.force.Y	femur_lat_meniscii_r.meniscus_lat_r.force.Z	femur_lat_meniscii_r.meniscus_lat_r.torque.X	femur_lat_meniscii_r.meniscus_lat_r.torque.Y	femur_lat_meniscii_r.meniscus_lat_r.torque.Z	femur_med_meniscii_r.femur_med_r.force.X	femur_med_meniscii_r.femur_med_r.force.Y	femur_med_meniscii_r.femur_med_r.force.Z	femur_med_meniscii_r.femur_med_r.torque.X	femur_med_meniscii_r.femur_med_r.torque.Y	femur_med_meniscii_r.femur_med_r.torque.Z	femur_med_meniscii_r.meniscus_med_r.force.X	femur_med_meniscii_r.meniscus_med_r.force.Y	femur_med_meniscii_r.meniscus_med_r.force.Z	femur_med_meniscii_r.meniscus_med_r.torque.X	femur_med_meniscii_r.meniscus_med_r.torque.Y	femur_med_meniscii_r.meniscus_med_r.torque.Z	femur_med_tibia_r.tibia_upper_r.force.X	femur_med_tibia_r.tibia_upper_r.force.Y	femur_med_tibia_r.tibia_upper_r.force.Z	femur_med_tibia_r.tibia_upper_r.torque.X	femur_med_tibia_r.tibia_upper_r.torque.Y	femur_med_tibia_r.tibia_upper_r.torque.Z	femur_med_tibia_r.femur_med_r.force.X	femur_med_tibia_r.femur_med_r.force.Y	femur_med_tibia_r.femur_med_r.force.Z	femur_med_tibia_r.femur_med_r.torque.X	femur_med_tibia_r.femur_med_r.torque.Y	femur_med_tibia_r.femur_med_r.torque.Z	femur_lat_tibia_r.tibia_upper_r.force.X	femur_lat_tibia_r.tibia_upper_r.force.Y	femur_lat_tibia_r.tibia_upper_r.force.Z	femur_lat_tibia_r.tibia_upper_r.torque.X	femur_lat_tibia_r.tibia_upper_r.torque.Y	femur_lat_tibia_r.tibia_upper_r.torque.Z	femur_lat_tibia_r.femur_lat_r.force.X	femur_lat_tibia_r.femur_lat_r.force.Y	femur_lat_tibia_r.femur_lat_r.force.Z	femur_lat_tibia_r.femur_lat_r.torque.X	femur_lat_tibia_r.femur_lat_r.torque.Y	femur_lat_tibia_r.femur_lat_r.torque.Z	aACL_R	pACL_R	aPCL_R	pPCL_R	aMCL_R	mMCL_R	pMCL_R	aLCL_R	mLCL_R	pLCL_R	aPCL_L	pPCL_L	aMCL_L	aLCL_L
      0.10718859	      7.73983649	     11.41116719	     12.30600076	      5.20583470	      5.96521407	      6.61490637	    115.54848778	    168.61994691	    232.08257088	    367.65805384	    125.89384353	     11.39828750	      8.05759582	      0.00000000	      4.86885557	      8.57231452	      5.04263429	      0.00000000	    100.32493513	      7.37676993	     11.23626725	      8.48052218	     33.24508755	     25.02467874	      7.07965529	      4.59591379	      3.94024133	     38.96581483	      0.00000000	      0.00000000	      0.00000000	     21.80497882	      0.80987318	      0.00000000	      0.04860801	      2.56718137	      0.13292036	     30.38799882	      2.54064450	      3.94924404	      5.72613288	     17.32544516	      5.44754188	      7.73983649	     11.41116719	     12.30600076	      5.20583470	      5.96521407	      6.61490637	      0.00000000	      8.60598158	     14.92269047	     14.34483608	      2.96621955	     11.39828750	      8.05759582	      0.00000000	      4.86885557	      8.57231452	      6.90036854	      0.00000000	      3.07787542	      7.37676993	     11.23626725	      8.48052218	     33.24508755	     25.02467874	      7.07965529	      4.59591379	      3.94024133	     23.64238138	      0.00000000	      0.00000000	      0.00000000	     15.90350783	      8.29725506	     58.03059837	     57.85484696	      7.99194484	      7.39310679	     16.84982311	      9.51358114	     21.84777517	      3.86238569	     11.47838781	      3.88418327	     49.03290397	     49.03290397	     18.63022046	     18.63022046	     35.55194699	     35.55194699	     56.66508425	    270.06504574	     42.09576993	    -23.84377376	      1.47264604	     22.34184814	    -56.66508425	   -270.06504574	    -42.09576993	      8.34705607	     -2.01178981	      1.97714406	    -31.24651672	     60.15498623	      6.17301340	     -1.09488517	      0.74360849	    -12.79575922	     31.24651672	    -60.15498623	     -6.17301340	     -1.13226899	     -0.73544825	      1.44284547	    -87.57083364	   -501.24507030	    113.49837620	    -11.87138642	      2.22713765	      0.70528548	     87.57083364	    501.24507030	   -113.49837620	     56.36437390	     -1.30347772	     37.70291153	    -39.90844754	   -150.47056769	    -38.29437674	      5.16215802	     -1.41507576	      0.18116221	     39.90844754	    150.47056769	     38.29437674	    -19.46940045	      0.95028394	     16.55542882	      9.82057163	    -11.32022169	      0.00000000	     55.49303007	      0.00000000	      0.00000000	    -37.59311946	      0.00000000	      0.00000000	      0.00000000	      0.00000000	      0.00000000	      0.00000001	      0.00000000
      0.10821753	      8.68504092	     11.33265224	     12.22177487	      5.17116436	      5.92698415	      6.57820244	    115.14185595	    168.34537870	    229.79842330	    365.61001850	    126.06275909	     11.31868735	      8.00441305	      0.00000000	      4.85008716	      8.51144100	      5.04415490	      2.28249303	    100.34353783	      7.32623162	     11.15808278	      8.42076693	     33.09754624	     24.85670391	      7.05570585	      4.57175672	      4.13693101	     38.76312372	      0.00000000	      0.00000000	      0.00000000	     23.71643581	      0.75627414	      0.00000000	      0.00000000	      2.15283242	      0.00000000	     30.14901959	      2.85571977	      4.10129346	      8.71149641	     17.25045992	      5.41623136	      8.68504092	     11.33265224	     12.22177487	      5.17116436	      5.92698415	      6.57820244	      0.00000000	      8.54364746	     14.91375776	     14.24722901	      2.94655336	     11.31868735	      8.00441305	      0.00000000	      4.85008716	      8.51144100	      6.86455363	      2.28249303	      3.05713105	      7.32623162	     11.15808278	      8.42076693	     33.09754624	     24.85670391	      7.05570585	      4.57175672	      4.13693101	     23.49305331	      0.00000000	      0.00000000	      0.00000000	     16.28265291	      8.43724805	     58.08635310	     57.74423108	      7.88406160	      7.27789172	     16.82023576	      9.47058745	     21.80272140	      3.83678215	     11.59171847	      3.92072860	     48.70567311	     48.70567311	     18.49755622	     18.49755622	     35.42966488	     35.42966488	     54.46681709	    271.65614556	     42.62231638	    -24.11437116	      1.41059244	     21.38473406	    -54.46681709	   -271.65614556	    -42.62231638	      8.40773908	     -1.95434065	      2.15229740	    -30.15943190	     61.20732919	      7.05596376	     -1.43923801	      0.71325236	    -12.34037819	     30.15943190	    -61.20732919	     -7.05596376	     -1.12585382	     -0.71861629	      1.42289006	    -93.23357751	   -502.48947545	    112.74364059	    -11.86849057	      2.33485733	      0.60940400	     93.23357751	    502.48947545	   -112.74364059	     56.05381012	     -1.40931888	     40.05478535	    -37.48018429	   -140.72865091	    -35.60772015	      4.80712189	     -1.33380696	      0.21113174	     37.48018429	    140.72865091	     35.60772015	    -18.11512668	      0.89688188	     15.52349961	      9.15280754	    -11.79477496	      0.00000000	     57.34092595	      0.00000000	      0.00000000	    -37.76586921	      0.00000000	      0.00000000	      0.00000000	      0.00000000	      0.00000000	      0.00000001	      0.00000000
      0.10933555	      9.52529910	     11.24853360	     12.13135654	      5.13404200	      5.88605690	      6.53790709	    114.63446140	    168.02780428	    227.00267655	    363.01318832	    126.16826925	     11.23347261	      7.94746617	      0.00000000	      4.82812884	      8.44607246	      5.04625243	      3.30182259	    100.28357522	      7.27200706	     11.07436588	      8.35679337	     32.93964511	     24.67691759	      7.02495005	      4.54587685	      4.33418193	     38.54722611	      0.00000000	      0.00000000	      0.00000000	     26.01773562	      0.72044733	      0.00000000	      0.00000000	      1.71722675	      0.00000000	     30.02023846	      3.22589050	      4.29599502	      5.74520089	     17.28764307	      5.38486157	      9.52529910	     11.24853360	     12.13135654	      5.13404200	      5.88605690	      6.53790709	      0.00000000	      8.47691592	     14.90069422	     14.14273019	      2.92549578	     11.23347261	      7.94746617	      0.00000000	      4.82812884	      8.44607246	      6.82601450	      3.30182259	      3.03492083	      7.27200706	     11.07436588	      8.35679337	     32.93964511	     24.67691759	      7.02495005	      4.54587685	      4.33418193	     23.33129638	      0.00000000	      0.00000000	      0.00000000	     16.67055227	      8.58036362	     58.12584358	     57.62172129	      7.77019136	      7.15628359	     16.78402506	      9.42310339	     21.75190213	      3.80935413	     11.70163269	      3.95317122	     48.35530242	     48.35530242	     18.35553003	     18.35553003	     35.29881277	     35.29881277	     53.54999824	    271.95439835	     40.85303645	    -23.37076092	      1.38976608	     20.96438757	    -53.54999824	   -271.95439835	    -40.85303645	      8.32836949	     -1.91850167	      2.27285715	    -29.34168810	     61.48419083	      8.25420742	     -1.92881465	      0.69296838	    -12.01088016	     29.34168810	    -61.48419083	     -8.25420742	     -1.09662250	     -0.71486868	      1.41932286	    -97.82646923	   -504.05446614	    113.21240811	    -11.91553415	      2.43838469	      0.58265946	     97.82646923	    504.05446614	   -113.21240811	     56.26082931	     -1.49383669	     41.94136573	    -35.40682870	   -131.05307424	    -33.21008671	      4.46399745	     -1.26339447	      0.22421418	     35.40682870	    131.05307424	     33.21008671	    -16.88256913	      0.85075836	     14.64414421	      8.08694303	    -12.55429100	      0.00000000	     60.49035162	      0.00000000	      0.00000000	    -38.17966962	      0.00000000	      0.00000000	      0.00000000	      0.00000000	      0.00000000	      0.00000001	      0.00000000
      0.11045357	     10.21262791	     11.16565007	     12.04210296	      5.09748343	      5.84575785	      6.49727532	    114.05786337	    167.68251365	    223.89021204	    359.97118378	    126.22711325	     11.14956758	      7.89138127	      0.00000000	      4.80477826	      8.38151621	      5.04493942	      3.76005607	    100.17627515	      7.21850867	     10.99192060	      8.29380028	     32.78421864	     24.49993190	      6.99038314	      4.52037776	      4.51585368	     38.32378924	      0.00000000	      0.00000000	      0.00000000	     28.51068714	      0.69731474	      0.00000000	      0.00000000	      1.30065173	      0.00000000	     29.18935934	      3.62494607	      4.51759065	      7.91120040	     17.54359078	      5.35206179	     10.21262791	     11.16565007	     12.04210296	      5.09748343	      5.84575785	      6.49727532	      0.00000000	      8.41120933	     14.88422595	     14.03983015	      2.90475747	     11.14956758	      7.89138127	      0.00000000	      4.80477826	      8.38151621	      6.78787497	      3.76005607	      3.01304925	      7.21850867	     10.99192060	      8.29380028	     32.78421864	     24.49993190	      6.99038314	      4.52037776	      4.51585368	     23.17017316	      0.00000000	      0.00000000	      0.00000000	     17.03483241	      8.71458894	     58.14460238	     57.49692908	      7.65995393	      7.03863786	     16.74378534	      9.37489202	     21.69919546	      3.78233088	     11.79666603	      3.97782196	     48.01025630	     48.01025630	     18.21568272	     18.21568272	     35.17002781	     35.17002781	     58.08655124	    283.05347647	     38.80546175	    -22.77553391	      1.48716265	     22.77927079	    -58.08655124	   -283.05347647	    -38.80546175	      8.52670806	     -2.00911508	      2.35651059	    -28.02666727	     62.87346245	      9.06211656	     -2.22302289	      0.65651560	    -11.46580007	     28.02666727	    -62.87346245	     -9.06211656	     -1.11114366	     -0.69226937	      1.40218938	   -107.48587044	   -511.16839432	    115.06907913	    -12.10101195	      2.62912961	      0.40337682	    107.48587044	    511.16839432	   -115.06907913	     57.14967424	     -1.66071434	     45.97848355	    -35.02364282	   -124.55984685	    -31.06167498	      4.21106128	     -1.23429524	      0.20166859	     35.02364282	    124.55984685	     31.06167498	    -15.82773795	      0.84025808	     14.47685544	      7.33202179	    -13.04127787	     25.47029058	     58.81695437	      0.00000000	      0.00000000	      0.00000000	      0.00000000	      0.00000000	      0.00000000	      0.00000000	      0.00000000	      0.00000001	      0.00000000
